<?xml version="1.0" standalone="no"?>
<!DOCTYPE svg PUBLIC "-//W3C//DTD SVG 20010904//EN"
 "http://www.w3.org/TR/2001/REC-SVG-20010904/DTD/svg10.dtd">
<svg version="1.0" xmlns="http://www.w3.org/2000/svg"
 width="512.000000pt" height="512.000000pt" viewBox="0 0 512.000000 512.000000"
 preserveAspectRatio="xMidYMid meet">
<metadata>
Created by potrace 1.14, written by Peter Selinger 2001-2017
</metadata>
<g transform="translate(0.000000,512.000000) scale(0.100000,-0.100000)"
fill="#000000" stroke="none">
<path d="M2129 5116 c-2 -2 -51 -6 -109 -10 -58 -4 -118 -9 -135 -11 -16 -2
-52 -7 -80 -10 -27 -3 -61 -7 -75 -9 -14 -3 -67 -12 -118 -20 -51 -9 -132 -25
-180 -36 -48 -12 -98 -23 -111 -26 -72 -15 -258 -82 -347 -126 -176 -84 -286
-163 -464 -330 -133 -125 -259 -337 -340 -573 -76 -222 -117 -411 -135 -635
-4 -41 -8 -93 -10 -115 -24 -251 -23 -971 0 -1310 17 -255 49 -441 106 -626
120 -394 249 -600 504 -809 214 -175 442 -285 736 -354 158 -37 177 -40 364
-71 17 -3 57 -7 90 -10 33 -4 74 -8 91 -10 152 -20 947 -28 1164 -12 143 11
250 23 296 31 11 2 46 7 79 11 32 3 62 8 65 10 3 2 22 6 42 9 251 40 512 127
698 234 199 115 406 302 513 463 136 206 263 560 301 839 36 271 41 379 41
965 0 456 -5 645 -20 775 -3 19 -7 58 -10 85 -3 28 -8 62 -10 77 -3 16 -7 40
-9 55 -12 93 -49 233 -103 393 -122 359 -306 597 -618 803 -204 134 -409 211
-755 282 -63 13 -289 46 -350 51 -41 3 -91 8 -110 11 -40 5 -995 14 -1001 9z"/>
</g>
</svg>
